<svg xmlns="http://www.w3.org/2000/svg" version="1.1" xmlns:xlink="http://www.w3.org/1999/xlink" xmlns:svgjs="http://svgjs.dev/svgjs" width="1500" height="1500" viewBox="0 0 1500 1500"><rect width="1500" height="1500" fill="#ffffff"></rect><g transform="matrix(0.6666666666666666,0,0,0.6666666666666666,249.85250809741785,629.3055913801765)"><svg viewBox="0 0 405 98" data-background-color="#000000" preserveAspectRatio="xMidYMid meet" height="362" width="1500" xmlns="http://www.w3.org/2000/svg" xmlns:xlink="http://www.w3.org/1999/xlink"><g id="tight-bounds" transform="matrix(1,0,0,1,9.72942548758374,12.149039481422022)"><svg viewBox="0 0 395.52 86.10080331618427" height="86.10080331618427" width="395.52"><g><svg viewBox="0 0 597.7543140755809 130.12521902210312" height="86.10080331618427" width="395.52"><g><rect width="11.676444319044073" height="130.12521902210312" x="159.9912615915" y="0" fill="#000000" opacity="1" stroke-width="0" stroke="transparent" fill-opacity="1" class="rect-qz-0" data-fill-palette-color="primary" rx="1%" id="qz-0" data-palette-color="#4456a6"></rect></g><g transform="matrix(1,0,0,1,202.23431407558093,0.3236945746818378)"><svg viewBox="0 0 395.52 129.47782987273945" height="129.47782987273945" width="395.52"><g id="textblocktransform"><svg viewBox="0 0 395.52 129.47782987273945" height="129.47782987273945" width="395.52" id="textblock"><g><svg viewBox="0 0 395.52 129.47782987273945" height="129.47782987273945" width="395.52"><g transform="matrix(1,0,0,1,0,0)"><svg width="395.52" viewBox="1.95 -36.84 145.79000000000002 47.730000000000004" height="129.47782987273945" data-palette-color="#4456a6"><path d="M26.81-9.25L26.81 0 1.95 0 1.95-2.2 20.56-31.05 7.54-31.05Q6.91-31.05 6.69-30.2L6.69-30.2 5.96-25.56 3-25.56 3-33.54 26.54-33.54 26.54-31.25 7.91-2.54 22.14-2.54Q22.49-2.54 22.71-2.81 22.92-3.08 23-3.44L23-3.44 23.85-9.25 26.81-9.25ZM56.1-1.95L56.1 0 48.17 0 48.17-2.86Q47.31-2.2 45.99-1.39 44.68-0.59 43.16 0.01 41.65 0.61 40.16 0.61L40.16 0.61Q36.94 0.61 35.09-1.33 33.25-3.27 33.25-7.5L33.25-7.5 33.25-21.04 29.76-21.04 29.76-22.75 35.91-24.71 37.91-24.71 37.91-8.45Q37.91-5.79 39-4.3 40.09-2.81 42.75-2.81L42.75-2.81Q44.28-2.81 45.77-3.33 47.26-3.86 48.17-4.3L48.17-4.3 48.17-21.04 44.65-21.04 44.65-22.75 50.75-24.71 52.81-24.71 52.81-3.2Q52.81-2.73 53.13-2.44 53.46-2.15 53.9-2.1L53.9-2.1 56.1-1.95ZM83.44-12.4L83.44-12.4Q83.44-8.47 81.93-5.54 80.41-2.61 77.58-1 74.75 0.61 70.8 0.61L70.8 0.61Q69.67 0.61 68.57 0.46 67.48 0.32 66.35 0.15L66.35 0.15 66.35 7.59Q66.35 8.06 66.67 8.33 66.99 8.59 67.45 8.64L67.45 8.64 70.41 8.96 70.41 10.89 58.25 10.89 58.25 8.96 60.64 8.64Q61.69 8.52 61.69 7.59L61.69 7.59 61.69-20.56 58.25-20.56 58.25-22.19 64.4-24.1 66.35-24.1 66.35-21.61Q68.06-22.92 70.04-23.82 72.02-24.71 73.9-24.71L73.9-24.71Q76.48-24.71 78.64-23.18 80.81-21.66 82.12-18.9 83.44-16.14 83.44-12.4ZM78.44-11.69L78.44-11.69Q78.44-14.28 77.64-16.43 76.85-18.58 75.3-19.89 73.75-21.19 71.45-21.19L71.45-21.19Q70.19-21.19 68.82-20.73 67.45-20.26 66.35-19.7L66.35-19.7 66.35-2.49Q68.4-1.71 70.41-1.71L70.41-1.71Q73.16-1.71 74.93-3.13 76.7-4.54 77.57-6.82 78.44-9.11 78.44-11.69ZM96.04-32.35L96.04-32.35Q96.04-31.08 95.16-30.16 94.28-29.25 93.01-29.25L93.01-29.25Q91.74-29.25 90.83-30.16 89.91-31.08 89.91-32.35L89.91-32.35Q89.91-33.64 90.83-34.52 91.74-35.4 93.01-35.4L93.01-35.4Q94.28-35.4 95.16-34.52 96.04-33.64 96.04-32.35ZM98.6-1.95L98.6 0 86.86 0 86.86-1.95 89.3-2.1Q90.35-2.17 90.35-3.2L90.35-3.2 90.35-21.04 86.91-21.04 86.91-22.8 93.01-24.71 94.99-24.71 94.99-3.2Q94.99-2.73 95.29-2.43 95.6-2.12 96.04-2.1L96.04-2.1 98.6-1.95ZM117.76-23.56L117.76-17.65 115.15-17.65 114.76-21.14Q114.22-21.56 113.17-21.92 112.12-22.29 110.95-22.29L110.95-22.29Q108.9-22.29 107.9-21.35 106.9-20.41 106.9-18.95L106.9-18.95Q106.9-17.82 107.41-17.04 107.92-16.26 109.15-15.52 110.37-14.77 112.47-13.79L112.47-13.79Q115.08-12.6 116.79-11.15 118.5-9.69 118.5-7.25L118.5-7.25Q118.5-3.56 115.96-1.48 113.42 0.61 108.95 0.61L108.95 0.61Q106.66 0.61 104.71 0.13 102.77-0.34 102.02-0.66L102.02-0.66 102.02-7.3 104.56-7.3 105.17-3.05Q105.92-2.56 107.03-2.11 108.14-1.66 109.61-1.66L109.61-1.66Q111.76-1.66 112.93-2.86 114.1-4.05 114.1-5.54L114.1-5.54Q114.1-7.5 112.5-8.61 110.9-9.72 108-11.11L108-11.11Q105.26-12.43 103.81-13.82 102.36-15.21 102.36-17.46L102.36-17.46Q102.36-20.8 104.7-22.75 107.05-24.71 111.37-24.71L111.37-24.71Q113.56-24.71 115.29-24.3 117.01-23.9 117.76-23.56L117.76-23.56ZM147.74-1.95L147.74 0 136.61 0 136.61-1.95 138.66-2.1Q139.1-2.15 139.43-2.44 139.76-2.73 139.76-3.2L139.76-3.2 139.76-16.09Q139.76-18.24 138.73-19.64 137.71-21.04 134.8-21.04L134.8-21.04Q133.48-21.04 131.96-20.63 130.43-20.21 129.36-19.6L129.36-19.6 129.36-3.2Q129.36-2.17 130.36-2.1L130.36-2.1 132.51-1.95 132.51 0 121.25 0 121.25-1.95 123.64-2.1Q124.69-2.17 124.69-3.2L124.69-3.2 124.69-33.25 120.96-33.25 120.96-34.91 127.36-36.84 129.36-36.84 129.36-21.61Q130.26-22.17 131.7-22.89 133.14-23.61 134.73-24.16 136.32-24.71 137.61-24.71L137.61-24.71Q140.49-24.71 142.44-22.85 144.4-21 144.4-17.14L144.4-17.14 144.4-3.2Q144.4-2.73 144.73-2.44 145.06-2.15 145.5-2.1L145.5-2.1 147.74-1.95Z" opacity="1" transform="matrix(1,0,0,1,0,0)" fill="#000000" class="wordmark-text-0" data-fill-palette-color="primary" id="text-0"></path></svg></g></svg></g></svg></g></svg></g><g transform="matrix(1,0,0,1,0,0.3236945746818378)"><svg viewBox="0 0 129.42465342646315 129.47782987273945" height="129.47782987273945" width="129.42465342646315"><g><svg xmlns="http://www.w3.org/2000/svg" data-name="Layer 1" viewBox="1.9914483139484447 1.9792198461133779 60.008551686051554 60.03320727863281" x="0" y="0" height="129.47782987273945" width="129.42465342646315" class="icon-icon-0" data-fill-palette-color="accent" id="icon-0"><path class="cls-1" d="M61 31H31a1 1 0 0 0-1 1V61a1 1 0 0 0 1 1H61a1 1 0 0 0 1-1V32A1 1 0 0 0 61 31Zm-1 5.5a1.5 1.5 0 0 1-3 0V33h3Zm-5 0a1.5 1.5 0 0 1-3 0V33h3Zm-5 0a1.5 1.5 0 0 1-3 0V33h3Zm-5 0a1.5 1.5 0 0 1-3 0V33h3Zm-5 0a1.5 1.5 0 0 1-3 0V33h3ZM32 33h3v3.5a1.5 1.5 0 0 1-3 0Zm4 27V50h6V60Zm8 0V49a1 1 0 0 0-1-1H35a1 1 0 0 0-1 1V60H32V39.649a3.446 3.446 0 0 0 4-0.707 3.483 3.483 0 0 0 5 0 3.483 3.483 0 0 0 5 0 3.483 3.483 0 0 0 5 0 3.483 3.483 0 0 0 5 0 3.446 3.446 0 0 0 4 0.707V60Z" stroke="#f15a28" stroke-miterlimit="10" fill="#000000" data-fill-palette-color="accent"></path><path class="cls-1" d="M20.1 55a1 1 0 0 0 0.965-0.741l2.684-10v-0.007h0L24.6 41H28V39H23.826a1 1 0 0 0-0.968 0.748L22.01 43H4a1 1 0 0 0-0.966 1.259l2.683 10A1 1 0 0 0 6.683 55H8.5v1.184a3 3 0 1 0 2 0V55h6v1.184a3 3 0 1 0 2 0V55ZM9.5 60a1 1 0 1 1 1-1A1 1 0 0 1 9.5 60Zm8 0a1 1 0 1 1 1-1A1 1 0 0 1 17.5 60ZM5.3 45H21.479l-2.146 8H7.45Z" stroke="#f15a28" stroke-miterlimit="10" fill="#000000" data-fill-palette-color="accent"></path><path class="cls-1" d="M55 12H49.941a9 9 0 0 0-17.882 0h-8.11A11 11 0 1 0 7.465 22.49c0.012 0.008 0.021 0.019 0.034 0.027s0.033 0.015 0.049 0.024a10.939 10.939 0 0 0 2.508 1.047c0.082 0.023 0.165 0.043 0.248 0.064q0.522 0.132 1.063 0.213c0.1 0.016 0.2 0.034 0.306 0.047a10.049 10.049 0 0 0 2.654 0c0.1-0.013 0.2-0.031 0.306-0.047q0.542-0.081 1.063-0.213c0.083-0.021 0.166-0.041 0.248-0.064a10.939 10.939 0 0 0 2.508-1.047c0.016-0.009 0.033-0.015 0.049-0.024s0.022-0.019 0.034-0.027A11 11 0 0 0 23.949 14h8.11a9 9 0 0 0 17.882 0H54V25.586l-2.293-2.293-1.414 1.414 4 4a1 1 0 0 0 1.414 0l4-4-1.414-1.414L56 25.586V13A1 1 0 0 0 55 12ZM13 14a3 3 0 1 1 3-3A3 3 0 0 1 13 14Zm-0.856 2h1.712A3.147 3.147 0 0 1 17 19.144V21.05l-0.07 0.034a8.487 8.487 0 0 1-0.846 0.36l-0.072 0.026a9.111 9.111 0 0 1-6.024 0l-0.072-0.026a8.487 8.487 0 0 1-0.846-0.36L9 21.05V19.144A3.147 3.147 0 0 1 12.144 16ZM19 19.689v-0.545a5.126 5.126 0 0 0-2.641-4.466 5 5 0 1 0-6.718 0A5.126 5.126 0 0 0 7 19.144v0.545a9 9 0 1 1 12 0ZM34 13a7 7 0 0 1 6-6.92V8.039a3.207 3.207 0 0 0-2.251 3.037c0 2.258 1.78 2.8 2.958 3.163 1.313 0.4 1.544 0.589 1.544 1.254a1.252 1.252 0 0 1-2.5 0h-2A3.206 3.206 0 0 0 40 18.53v1.39A7 7 0 0 1 34 13Zm8 6.92V18.53a3.206 3.206 0 0 0 2.251-3.037c0-2.262-1.781-2.806-2.96-3.167-1.312-0.4-1.542-0.588-1.542-1.25a1.252 1.252 0 0 1 2.5 0h2A3.207 3.207 0 0 0 42 8.039V6.08a6.991 6.991 0 0 1 0 13.84Z" stroke="#f15a28" stroke-miterlimit="10" fill="#000000" data-fill-palette-color="accent"></path><path class="cls-1" d="M14 41V29.414l2.293 2.293 1.414-1.414-4-4a1 1 0 0 0-1.414 0l-4 4 1.414 1.414L12 29.414V41Z" stroke="#f15a28" stroke-miterlimit="10" fill="#000000" data-fill-palette-color="accent"></path><path class="cls-1" d="M57 42H47a1 1 0 0 0-1 1v7a1 1 0 0 0 1 1H57a1 1 0 0 0 1-1V43A1 1 0 0 0 57 42Zm-1 7H48V44h8Z" stroke="#f15a28" stroke-miterlimit="10" fill="#000000" data-fill-palette-color="accent"></path></svg></g></svg></g></svg></g><defs></defs></svg><rect width="395.52" height="86.10080331618427" fill="none" stroke="none" visibility="hidden"></rect></g></svg></g></svg>